<?xml version="1.0" encoding="utf-8"?>
<!-- Generator: Adobe Illustrator 16.0.0, SVG Export Plug-In . SVG Version: 6.00 Build 0)  -->
<!DOCTYPE svg PUBLIC "-//W3C//DTD SVG 1.1//EN" "http://www.w3.org/Graphics/SVG/1.1/DTD/svg11.dtd">
<svg version="1.1" id="Ebene_1" xmlns="http://www.w3.org/2000/svg" xmlns:xlink="http://www.w3.org/1999/xlink" x="0px" y="0px"
	 width="566.93px" height="566.93px" viewBox="0 0 566.93 566.93" enable-background="new 0 0 566.93 566.93" xml:space="preserve">
<path fill="#FFFFFF" d="M348.263,284l81.02-81.022c12.671-12.673,12.649-33.251-0.071-45.968l-18.229-18.226
	c-12.706-12.71-33.294-12.742-45.965-0.069l-81.016,81.026l-81.016-81.019c-12.687-12.684-33.258-12.645-45.972,0.065
	l-18.226,18.226c-12.713,12.717-12.749,33.285-0.065,45.969L219.741,284l-81.012,81.013c-12.683,12.688-12.643,33.259,0.066,45.969
	l18.226,18.229c12.717,12.717,33.285,12.753,45.968,0.063l81.012-81.012l81.016,81.012c12.671,12.679,33.251,12.657,45.965-0.067
	l18.229-18.229c12.703-12.706,12.739-33.29,0.071-45.965L348.263,284z"/>
</svg>
