<?xml version="1.0" encoding="utf-8"?>
<!-- Generator: Adobe Illustrator 16.0.0, SVG Export Plug-In . SVG Version: 6.00 Build 0)  -->
<!DOCTYPE svg PUBLIC "-//W3C//DTD SVG 1.1//EN" "http://www.w3.org/Graphics/SVG/1.1/DTD/svg11.dtd">
<svg version="1.1" id="Ebene_1" xmlns="http://www.w3.org/2000/svg" xmlns:xlink="http://www.w3.org/1999/xlink" x="0px" y="0px"
	 width="566.93px" height="566.93px" viewBox="0 0 566.93 566.93" enable-background="new 0 0 566.93 566.93" xml:space="preserve">
<g id="icons">
	<path id="settings" fill="#FFFFFF" d="M448.273,323.009l-19.271-11.243c-20.878-12.847-20.878-43.36,0-56.208l19.271-11.242
		c16.061-9.636,20.878-28.907,11.242-43.361l-16.06-27.301c-9.636-16.06-28.907-20.877-43.361-11.241l-19.271,11.241
		c-20.878,12.848-48.18-3.212-48.18-27.301v-22.483c0-17.666-14.453-32.12-32.119-32.12h-32.119c-17.666,0-32.12,14.454-32.12,32.12
		v20.877c0,24.089-27.301,40.149-48.179,27.301l-19.272-9.635c-16.06-9.636-35.331-3.212-43.361,11.241l-16.06,27.301
		c-8.03,16.06-3.212,35.332,11.241,44.967l19.272,11.242c20.877,11.242,20.877,43.361,0,54.602l-19.272,11.243
		c-16.06,9.635-20.877,28.907-11.241,43.36l16.06,27.302c9.636,16.06,28.907,20.878,43.361,11.241l19.272-9.636
		c20.877-12.848,48.179,3.212,48.179,27.302v22.483c0,17.666,14.454,32.12,32.12,32.12h32.119c17.666,0,32.119-14.454,32.119-32.12
		v-20.878c0-24.089,27.302-40.148,48.18-27.301l19.271,11.241c16.06,9.636,35.331,3.212,43.361-11.241l16.06-27.302
		C467.546,351.916,462.728,332.644,448.273,323.009z M284.465,348.703c-35.332,0-64.239-28.907-64.239-64.238
		c0-35.332,28.907-64.239,64.239-64.239c35.331,0,64.239,28.907,64.239,64.239C348.704,319.796,319.796,348.703,284.465,348.703z"/>
</g>
</svg>
