<?xml version="1.0" encoding="utf-8"?>
<!-- Generator: Adobe Illustrator 16.0.0, SVG Export Plug-In . SVG Version: 6.00 Build 0)  -->
<!DOCTYPE svg PUBLIC "-//W3C//DTD SVG 1.1//EN" "http://www.w3.org/Graphics/SVG/1.1/DTD/svg11.dtd">
<svg version="1.1" id="Ebene_1" xmlns="http://www.w3.org/2000/svg" xmlns:xlink="http://www.w3.org/1999/xlink" x="0px" y="0px"
	 width="566.93px" height="566.93px" viewBox="0 0 566.93 566.93" enable-background="new 0 0 566.93 566.93" xml:space="preserve">
<path fill="#FFFFFF" d="M382.805,392.455l-71.127,0.002v-47.057c72.293-13.27,127.077-76.596,127.077-152.725
	c0-85.764-69.525-155.29-155.29-155.29c-85.764,0-155.29,69.526-155.29,155.29c0,76.132,54.788,139.46,127.085,152.727l0.003,47.056
	l-71.127-0.001c-11.137,0.001-20.15,9.049-20.151,20.209v16c0.001,11.164,9.014,20.208,20.149,20.207l71.129,0.001v71.123
	c0.002,11.138,9.05,20.149,20.208,20.149l16.003,0.003c11.163,0,20.208-9.015,20.204-20.151v-71.124l71.125-0.001
	c11.127,0.004,20.152-9.04,20.147-20.207v-16.003C402.949,401.51,393.929,392.457,382.805,392.455z M196.78,192.676
	c0-47.875,38.811-86.685,86.685-86.685c47.876,0,86.685,38.811,86.685,86.685s-38.809,86.685-86.685,86.685
	C235.59,279.361,196.78,240.55,196.78,192.676z"/>
</svg>
