<?xml version="1.0" encoding="utf-8"?>
<!-- Generator: Adobe Illustrator 16.0.0, SVG Export Plug-In . SVG Version: 6.00 Build 0)  -->
<!DOCTYPE svg PUBLIC "-//W3C//DTD SVG 1.1//EN" "http://www.w3.org/Graphics/SVG/1.1/DTD/svg11.dtd">
<svg version="1.1" id="Ebene_1" xmlns="http://www.w3.org/2000/svg" xmlns:xlink="http://www.w3.org/1999/xlink" x="0px" y="0px"
	 width="566.93px" height="566.93px" viewBox="0 0 566.93 566.93" enable-background="new 0 0 566.93 566.93" xml:space="preserve">
<path fill="#FFFFFF" d="M460.533,214.17L413.998,71.602c-1.912-5.876-4.705-12.287-13.368-16.688
	c-8.661-4.394-14.526-3.196-21.1-1.052l-142.842,46.632c-6.921,2.248-12.016,6.583-15.211,12.889
	c-7.169,14.109-0.01,29.894,11.684,35.837c6.135,3.105,12.847,3.745,19.902,1.429l82.774-27.011l-46.622,91.799
	c-67.26-24.581-144.841,0.107-184.558,63.15c-45.716,72.564-23.951,168.449,48.614,214.166
	c72.564,45.715,168.449,23.95,214.165-48.614c42.006-66.676,27.032-153.035-31.967-202.078l47.886-94.289l27.018,82.773
	c2.306,7.064,6.767,12.098,12.89,15.22c11.693,5.931,28.665,2.41,35.837-11.698C462.306,227.751,462.809,221.087,460.533,214.17z
	 M309.391,407.568c-25.519,40.507-79.044,52.656-119.55,27.137c-40.507-25.52-52.655-79.043-27.136-119.549
	c25.519-40.507,79.042-52.657,119.549-27.138C322.76,313.538,334.909,367.063,309.391,407.568z"/>
</svg>
