<?xml version="1.0" encoding="utf-8"?>
<!-- Generator: Adobe Illustrator 16.0.0, SVG Export Plug-In . SVG Version: 6.00 Build 0)  -->
<!DOCTYPE svg PUBLIC "-//W3C//DTD SVG 1.1//EN" "http://www.w3.org/Graphics/SVG/1.1/DTD/svg11.dtd">
<svg version="1.1" id="Ebene_1" xmlns="http://www.w3.org/2000/svg" xmlns:xlink="http://www.w3.org/1999/xlink" x="0px" y="0px"
	 width="566.93px" height="566.93px" viewBox="0 0 566.93 566.93" enable-background="new 0 0 566.93 566.93" xml:space="preserve">
<g>
	<path fill="#FFFFFF" d="M399.845,245.33c0,13.575-11.009,24.586-24.585,24.586s-24.586-11.011-24.586-24.586
		s11.01-24.58,24.586-24.58S399.845,231.755,399.845,245.33 M341.546,325.567c0,21.126-26.045,38.252-58.17,38.252
		c-32.123,0-58.167-17.126-58.167-38.252c0-21.127,26.044-38.256,58.167-38.256C315.501,287.313,341.546,304.44,341.546,325.567
		 M213.612,245.33c0,13.575-11.002,24.586-24.581,24.586c-13.576,0-24.585-11.011-24.585-24.586s11.009-24.58,24.585-24.58
		C202.61,220.75,213.612,231.755,213.612,245.33 M494.871,173.488c18.628-27.614,12.14-64.572-14.492-82.528
		c-26.638-17.975-63.33-10.141-81.953,17.476c-0.626,0.926-1.157,1.894-1.724,2.843c-33.906-14.644-72.435-22.97-113.326-22.97
		c-40.897,0-79.418,8.326-113.321,22.97c-0.573-0.949-1.099-1.917-1.727-2.843c-18.628-27.616-55.315-35.45-81.95-17.476
		c-26.634,17.956-33.123,54.914-14.491,82.528c1.763,2.623,3.738,5.002,5.805,7.258c-24.993,31.792-39.569,69.706-39.569,110.456
		c0,112.057,109.805,203.026,245.253,202.896c131.722-0.127,245.259-91.03,245.259-202.895c0-40.75-14.577-78.663-39.574-110.456
		C491.135,178.491,493.102,176.11,494.871,173.488"/>
</g>
</svg>
